# 3ds Max Wavefront OBJ Exporter v0.97b - (c)2007 guruware
# File Created: 10.10.2015 15:15:41

mtllib 3d-model.mtl

#
# object Layer0_001
#

v  1.4281 2.4735 -0.0938
v  2.0020 1.2402 -0.0938
v  0.7161 1.2402 -0.0938
v  0.0000 5.5428 -0.0938
v  0.7891 3.8470 -0.0938
v  -0.7891 3.8471 -0.0938
v  0.0000 2.4803 -0.0938
v  -1.4282 2.4738 -0.0938
v  2.2211 3.8470 -0.0938
v  -2.2211 3.8471 -0.0938
v  0.0000 0.0000 -0.0938
v  -0.7160 1.2402 -0.0938
v  -2.0023 1.2402 -0.0938
v  0.0000 2.4803 1.5938
v  0.0000 2.4803 -1.2813
v  0.0000 2.4803 -1.5938
# 16 vertices

vn 0.0000 0.0000 -1.0000
vn -0.8660 -0.5000 -0.0000
vn 0.8660 -0.5000 -0.0000
vn 0.0001 0.7771 0.6294
vn 0.7199 0.3350 0.6079
vn -0.0048 -1.0000 0.0000
vn -0.7198 0.3350 0.6079
vn 0.0046 -1.0000 -0.0000
vn -0.6978 -0.4029 0.5922
vn 0.6978 -0.4029 0.5922
vn 0.0000 -0.8058 0.5922
vn 0.0001 0.7392 -0.6735
vn -1.0000 0.0000 -0.0000
vn -0.6869 0.3197 -0.6527
vn -0.5241 -0.8517 0.0000
vn 0.5266 -0.8501 0.0000
vn 0.6870 0.3196 -0.6526
vn 0.5241 -0.8517 0.0000
vn 0.6674 -0.3853 -0.6372
vn -0.5266 -0.8501 0.0000
vn -0.6674 -0.3853 -0.6372
vn 0.0000 -0.7707 -0.6372
vn -0.0000 0.7771 0.6294
vn 0.0000 0.7392 -0.6735
# 24 vertex normals

vt 0.0000 0.0000 0.0000
vt 7.8191 6.9168 0.0000
vt 7.9690 6.7959 0.0000
vt 7.8616 7.0668 0.0000
vt 8.9692 0.3906 0.0000
vt 8.8617 0.1197 0.0000
vt 9.0116 0.2406 0.0000
vt 9.1123 7.2147 0.0000
vt 8.8853 7.0903 0.0000
vt 9.0695 7.0897 0.0000
vt 13.2282 2.8607 0.0000
vt 13.1089 2.8607 0.0000
vt 13.0431 2.6797 0.0000
vt 7.8092 -0.9239 0.0000
vt 7.9934 -0.9233 0.0000
vt 7.7664 -0.7988 0.0000
vt 12.9774 2.8608 0.0000
vt 12.8581 2.8608 0.0000
vt 7.7539 6.6862 0.0000
vt 7.7848 6.7953 0.0000
vt 13.0431 1.6225 0.0000
vt 12.8763 1.4480 0.0000
vt 12.9835 1.4480 0.0000
vt 9.0460 0.1191 0.0000
vt 9.0768 0.0100 0.0000
vt 13.2100 1.4480 0.0000
vt 13.1028 1.4480 0.0000
vt 9.0311 6.9774 0.0000
vt 8.9925 6.8645 0.0000
vt 7.8862 -1.1491 0.0000
vt 7.8476 -1.0362 0.0000
vt -9.6006 6.1855 0.0000
vt -9.4647 6.3057 0.0000
vt -9.5100 6.4549 0.0000
vt -8.3665 0.1402 0.0000
vt -8.4572 0.4096 0.0000
vt -8.5024 0.2604 0.0000
vt -9.6218 -0.1466 0.0000
vt -9.4492 -0.1472 0.0000
vt -9.4036 -0.0231 0.0000
vt -13.0431 1.7527 0.0000
vt -12.8581 1.9218 0.0000
vt -12.9774 1.9218 0.0000
vt -8.3915 7.1243 0.0000
vt -8.6097 7.2478 0.0000
vt -8.5641 7.1237 0.0000
vt -13.2282 1.9216 0.0000
vt -13.1089 1.9216 0.0000
vt -8.5391 0.1396 0.0000
vt -8.5721 0.0312 0.0000
vt -13.2100 2.7462 0.0000
vt -13.1028 2.7462 0.0000
vt -13.0431 2.9084 0.0000
vt -9.3951 6.0765 0.0000
vt -9.4280 6.1850 0.0000
vt -12.9835 2.7462 0.0000
vt -12.8763 2.7462 0.0000
vt -9.5314 -0.3706 0.0000
vt -9.4902 -0.2586 0.0000
vt -8.5231 7.0124 0.0000
vt -8.4819 6.9004 0.0000
# 61 texture coords

g Layer0_001
usemtl wire_028089177
s off
f 1/1/1 2/1/1 3/1/1 
f 4/1/1 5/1/1 6/1/1 
f 7/1/1 1/1/1 3/1/1 
f 6/1/1 7/1/1 8/1/1 
f 9/1/1 1/1/1 5/1/1 
f 6/1/1 5/1/1 7/1/1 
f 6/1/1 8/1/1 10/1/1 
f 3/1/1 11/1/1 12/1/1 
f 8/1/1 12/1/1 13/1/1 
f 7/1/1 3/1/1 12/1/1 
f 5/1/1 1/1/1 7/1/1 
f 7/1/1 12/1/1 8/1/1 
f 7/1/2 14/1/2 6/1/2 
f 5/1/3 14/1/3 7/1/3 
f 5/1/4 6/1/4 14/1/4 
f 5/1/5 14/1/5 1/1/5 
f 1/1/6 14/1/6 7/1/6 
f 8/1/7 14/1/7 6/1/7 
f 14/1/8 8/1/8 7/1/8 
f 7/1/3 14/1/3 12/1/3 
f 12/1/9 14/1/9 8/1/9 
f 1/1/10 14/1/10 3/1/10 
f 3/1/2 14/1/2 7/1/2 
f 3/1/11 14/1/11 12/1/11 
f 5/1/3 7/1/3 15/1/3 16/1/3 
f 7/1/2 6/1/2 16/1/2 15/1/3 
f 7/1/2 16/1/2 15/1/2 
f 5/1/12 16/1/12 6/1/12 
f 7/1/13 14/1/13 4/1/13 16/1/13 
f 7/1/13 16/1/13 15/1/13 
f 16/1/14 8/1/14 6/1/14 
f 16/1/8 7/1/8 8/1/8 
f 7/1/8 16/1/8 15/1/8 
f 14/1/15 10/1/15 16/1/15 15/1/16 
f 14/1/15 16/1/15 15/1/15 7/1/16 
f 14/1/15 15/1/15 7/1/15 
f 16/1/17 5/1/17 1/1/17 
f 15/1/6 16/1/6 1/1/6 7/1/6 
f 15/1/18 16/1/18 9/1/18 7/1/18 
f 7/1/18 9/1/18 14/1/18 
f 16/1/19 1/1/19 3/1/19 
f 3/1/2 7/1/2 15/1/2 16/1/2 
f 15/1/20 16/1/20 2/1/20 7/1/20 
f 7/1/20 2/1/20 14/1/20 
f 16/1/3 7/1/3 12/1/3 
f 16/1/21 12/1/21 8/1/21 
f 3/1/22 12/1/22 16/1/22 
f 16/1/16 14/1/16 13/1/16 
f 11/1/13 14/1/13 7/1/13 15/1/13 
f 11/1/13 15/1/13 16/1/13 
f 6/2/7 14/3/7 4/4/7 
f 4/5/5 14/6/5 5/7/5 
f 9/8/10 14/9/10 1/10/10 
f 9/11/23 5/12/23 14/13/23 
f 8/14/9 14/15/9 10/16/9 
f 14/13/23 6/17/23 10/18/23 
f 13/19/7 14/3/7 8/20/7 
f 14/21/11 13/22/11 12/23/11 
f 1/24/5 14/6/5 2/25/5 
f 2/26/11 14/21/11 3/27/11 
f 3/28/10 14/9/10 11/29/10 
f 11/30/9 14/15/9 12/31/9 
f 16/32/14 6/33/14 4/34/14 
f 16/35/17 4/36/17 5/37/17 
f 16/38/21 8/39/21 10/40/21 
f 16/41/24 10/42/24 6/43/24 
f 16/44/19 9/45/19 1/46/19 
f 9/47/24 16/41/24 5/48/24 
f 16/35/17 1/49/17 2/50/17 
f 2/51/22 3/52/22 16/53/22 
f 16/32/14 13/54/14 8/55/14 
f 16/53/22 12/56/22 13/57/22 
f 16/38/21 11/58/21 12/59/21 
f 16/44/19 3/60/19 11/61/19 
# 10 polygons - 64 triangles

